<?xml version="1.0" encoding="UTF-8"?>
<svg width="182px" height="47px" viewBox="0 0 182 47" version="1.1" xmlns="http://www.w3.org/2000/svg" xmlns:xlink="http://www.w3.org/1999/xlink">
    <!-- Generator: Sketch 43.2 (39069) - http://www.bohemiancoding.com/sketch -->
    <title>playerx-logo</title>
    <desc>Created with Sketch.</desc>
    <defs></defs>
    <g id="Page-1" stroke="none" stroke-width="1" fill="none" fill-rule="evenodd">
        <path d="M1,23.7400337 C1,21.7860655 1.35373032,19.9753031 2.06120157,18.3076923 C2.76867282,16.6400815 3.74564228,15.1914716 4.99213925,13.9618192 C6.23863622,12.7321668 7.69566825,11.7636195 9.36327906,11.0561482 C11.0308899,10.348677 12.8248079,9.99494666 14.745087,9.99494666 C16.6653661,9.99494666 18.4592842,10.3570991 20.126895,11.0814149 C21.7945058,11.8057307 23.2431157,12.7827002 24.4727681,14.0123526 C25.7024205,15.242005 26.67939,16.6906149 27.4037058,18.3582257 C28.1280216,20.0258365 28.4901741,21.8197546 28.4901741,23.7400337 C28.4901741,25.6603128 28.1280216,27.4542309 27.4037058,29.1218417 C26.67939,30.7894525 25.7024205,32.2380624 24.4727681,33.4677148 C23.2431157,34.6973672 21.7945058,35.6743366 20.126895,36.3986524 C18.4592842,37.1229682 16.6653661,37.4851207 14.745087,37.4851207 C13.2964554,37.4851207 11.8394234,37.1903455 10.3739472,36.6007861 C8.90847106,36.0112267 7.73779214,35.3121882 6.86187535,34.5036496 L6.86187535,46.3790006 L1,46.3790006 L1,23.7400337 Z M6.86187535,23.7400337 C6.86187535,24.8180851 7.07242911,25.8371653 7.49354295,26.7973049 C7.91465679,27.7574444 8.47894088,28.5912373 9.18641213,29.2987086 C9.89388338,30.0061798 10.7276763,30.5704639 11.6878158,30.9915778 C12.6479554,31.4126916 13.6670356,31.6232454 14.745087,31.6232454 C15.8231385,31.6232454 16.8422187,31.4126916 17.8023582,30.9915778 C18.7624978,30.5704639 19.5962907,30.0061798 20.3037619,29.2987086 C21.0112332,28.5912373 21.5755173,27.7574444 21.9966311,26.7973049 C22.4177449,25.8371653 22.6282987,24.8180851 22.6282987,23.7400337 C22.6282987,22.6619823 22.4177449,21.642902 21.9966311,20.6827625 C21.5755173,19.7226229 21.0112332,18.88883 20.3037619,18.1813588 C19.5962907,17.4738875 18.7624978,16.9096035 17.8023582,16.4884896 C16.8422187,16.0673758 15.8231385,15.856822 14.745087,15.856822 C13.6670356,15.856822 12.6479554,16.0673758 11.6878158,16.4884896 C10.7276763,16.9096035 9.89388338,17.4738875 9.18641213,18.1813588 C8.47894088,18.88883 7.91465679,19.7226229 7.49354295,20.6827625 C7.07242911,21.642902 6.86187535,22.6619823 6.86187535,23.7400337 Z M34.554183,1 L40.5171252,1 L40.5171252,36.3733857 L34.554183,36.3733857 L34.554183,1 Z M45.570466,23.6895003 C45.570466,21.7692212 45.9326185,19.9753031 46.6569343,18.3076923 C47.3812501,16.6400815 48.3666417,15.1914716 49.6131387,13.9618192 C50.8596357,12.7321668 52.3166677,11.7551973 53.9842785,11.0308815 C55.6518893,10.3065657 57.4458074,9.94441325 59.3660865,9.94441325 C61.2863656,9.94441325 63.0802836,10.3065657 64.7478944,11.0308815 C66.4155052,11.7551973 67.8641151,12.7321668 69.0937675,13.9618192 C70.32342,15.1914716 71.3003894,16.6400815 72.0247052,18.3076923 C72.749021,19.9753031 73.1111735,21.7692212 73.1111735,23.6895003 L73.1111735,36.3733857 L67.2492981,36.3733857 L67.2492981,34.9584503 C64.9584389,36.6092166 62.3307279,37.4345873 59.3660865,37.4345873 C57.2773618,37.4345873 55.382378,37.080857 53.681078,36.3733857 C51.9797781,35.6659145 50.5311682,34.688945 49.3352049,33.4424481 C48.1392416,32.1959511 47.2128051,30.7389191 46.5558675,29.0713083 C45.8989299,27.4036974 45.570466,25.6097794 45.570466,23.6895003 Z M51.4828748,23.6895003 C51.4828748,24.7675517 51.6934286,25.7866319 52.1145424,26.7467715 C52.5356562,27.706911 53.0999403,28.5407039 53.8074116,29.2481752 C54.5148828,29.9556464 55.3486757,30.5199305 56.3088153,30.9410444 C57.2689548,31.3621582 58.288035,31.572712 59.3660865,31.572712 C60.4441379,31.572712 61.4632181,31.3790025 62.4233577,30.9915778 C63.3834972,30.604153 64.2172901,30.0567133 64.9247614,29.349242 C65.6322326,28.6417707 66.1965167,27.8079778 66.6176305,26.8478383 C67.0387444,25.8876987 67.2492981,24.8349299 67.2492981,23.6895003 C67.2492981,22.6114488 67.0387444,21.5923686 66.6176305,20.6322291 C66.1965167,19.6720895 65.6322326,18.8382966 64.9247614,18.1308254 C64.2172901,17.4233541 63.3834972,16.85907 62.4233577,16.4379562 C61.4632181,16.0168424 60.4441379,15.8062886 59.3660865,15.8062886 C58.288035,15.8062886 57.2689548,16.0168424 56.3088153,16.4379562 C55.3486757,16.85907 54.5148828,17.4233541 53.8074116,18.1308254 C53.0999403,18.8382966 52.5356562,19.6720895 52.1145424,20.6322291 C51.6934286,21.5923686 51.4828748,22.6114488 51.4828748,23.6895003 Z M95.8006738,11.1066816 L101.662549,11.1066816 L101.662549,26.1656373 C101.662549,27.4458234 101.494106,28.6838795 101.157215,29.8798428 C100.820324,31.0758061 100.298151,32.1791078 99.5906794,33.189781 C98.8832081,34.2004542 97.9988823,35.0763579 96.9376755,35.8175182 C95.8764686,36.5586786 94.6215682,37.0976962 93.1729366,37.4345873 L93.1729366,46.3790006 L87.2605278,46.3790006 L87.2605278,37.3840539 C85.9803417,36.9797846 84.818085,36.4070784 83.7737226,35.665918 C82.7293603,34.9247577 81.8281902,34.0741205 81.0701853,33.1139809 C80.3121804,32.1538414 79.7226298,31.0842282 79.301516,29.9051095 C78.8804022,28.7259907 78.6698484,27.4795125 78.6698484,26.1656373 L78.6698484,11.1066816 L84.6327906,11.1066816 L84.6327906,26.1656373 C84.6327906,26.9404867 84.7759671,27.6647917 85.0623245,28.3385738 C85.3486819,29.012356 85.744523,29.6019065 86.2498596,30.1072431 C86.7551962,30.6125797 87.3447468,31.016843 88.0185289,31.3200449 C88.6923111,31.6232469 89.416616,31.7748456 90.1914655,31.7748456 C90.9326258,31.7748456 91.6485086,31.631669 92.3391353,31.3453116 C93.029762,31.0589542 93.6277347,30.6631131 94.1330713,30.1577765 C94.6384079,29.6524399 95.0426711,29.0628894 95.3458731,28.3891072 C95.6490751,27.7153251 95.8006738,26.9910202 95.8006738,26.2161707 L95.8006738,11.1066816 Z M112.375632,24.0937675 C112.409321,25.1381299 112.645141,26.1150993 113.083099,27.0247052 C113.521058,27.9343111 114.093764,28.7259933 114.801235,29.3997754 C115.508707,30.0735576 116.334077,30.604153 117.277372,30.9915778 C118.220667,31.3790025 119.214481,31.572712 120.258843,31.572712 C122.010677,31.572712 123.50982,31.1431823 124.756317,30.2841101 C126.002814,29.4250378 126.912406,28.2712032 127.485121,26.8225716 L133.902864,26.8225716 C133.330149,28.7428507 132.572155,30.3767479 131.62886,31.7243122 C130.685565,33.0718765 129.60753,34.166756 128.394722,35.0089837 C127.181914,35.8512114 125.884903,36.4660284 124.50365,36.8534531 C123.122396,37.2408778 121.707475,37.4345873 120.258843,37.4345873 C118.338564,37.4345873 116.544646,37.0724348 114.877035,36.348119 C113.209425,35.6238032 111.752393,34.6468338 110.505896,33.4171814 C109.259399,32.1875289 108.274007,30.7389191 107.549691,29.0713083 C106.825375,27.4036974 106.463223,25.6097794 106.463223,23.6895003 C106.463223,21.7692212 106.825375,19.9753031 107.549691,18.3076923 C108.274007,16.6400815 109.259399,15.1914716 110.505896,13.9618192 C111.752393,12.7321668 113.209425,11.7551973 114.877035,11.0308815 C116.544646,10.3065657 118.338564,9.94441325 120.258843,9.94441325 C122.381257,9.94441325 124.284663,10.3318322 125.969118,11.1066816 C127.653574,11.8815311 129.085339,12.9174556 130.264458,14.2144862 C131.443577,15.5115169 132.361591,17.0190818 133.018529,18.7372263 C133.675467,20.4553707 134.020775,22.2408666 134.054464,24.0937675 L112.375632,24.0937675 Z M127.434587,20.1521617 C126.929251,18.7372192 126.036503,17.5328517 124.756317,16.539023 C123.476131,15.5451944 121.976988,15.0482875 120.258843,15.0482875 C118.540699,15.0482875 117.041556,15.5451944 115.76137,16.539023 C114.481184,17.5328517 113.588436,18.7372192 113.083099,20.1521617 L127.434587,20.1521617 Z M154.16676,16.1600225 C153.088709,16.1600225 152.002251,16.3621541 150.907355,16.7664234 C149.812459,17.1706926 148.827068,17.7602432 147.951151,18.5350926 C147.075234,19.3099421 146.359351,20.2616451 145.803481,21.3902302 C145.247611,22.5188153 144.96968,23.79056 144.96968,25.2055025 L144.96968,36.3733857 L139.107805,36.3733857 L139.107805,11.1066816 L144.96968,11.1066816 L144.96968,14.4418866 C145.643462,13.5996589 146.409878,12.8921983 147.26895,12.3194834 C148.128022,11.7467686 149.012348,11.2835503 149.921954,10.9298147 C150.83156,10.5760791 151.724308,10.3234146 152.600225,10.1718136 C153.476141,10.0202126 154.267824,9.94441325 154.975295,9.94441325 L154.16676,16.1600225 Z M169.124649,28.9449747 L164.526109,36.3733857 L158.007299,36.3733857 L165.890511,23.7400337 L158.007299,11.1066816 L165.183043,11.1066816 L169.832117,18.5350926 L174.48119,11.1066816 L181,11.1066816 L173.066255,23.7400337 L181,36.3733857 L173.824256,36.3733857 L169.124649,28.9449747 Z" id="playerx" stroke="#000000" fill="#000000"></path>
    </g>
</svg>